# xmcd
#
# Track frame offsets:
#	150
#	14247
#	32796
#	48213
#	61456
#	74029
#	93452
#	105910
#	116966
#	137707
#	157905
#	172414
#
# Disc length: 2588 seconds
# Revision: 0
# Processed by: cddbd v1.5.2PL0 Copyright (c) Steve Scherf et al.
# Submitted via: dBpowerAMP V12.0
#
DISCID=b00a1a0c
DTITLE=Ray Cardwell - Stand On My Own
DYEAR=2019
DGENRE=Americana
TTITLE0=Time to Drive
TTITLE1=Hurricane Rain
TTITLE2=Stand on My Own
TTITLE3=Sinners and Saints
TTITLE4=Change in My Life
TTITLE5=Jump Back Jane
TTITLE6=New Set of Problems
TTITLE7=Alright
TTITLE8=Movin' On
TTITLE9=Wedding Bells
TTITLE10=Yeah Love
TTITLE11=Love Each Other
EXTD=
EXTT0=
EXTT1=
EXTT2=
EXTT3=
EXTT4=
EXTT5=
EXTT6=
EXTT7=
EXTT8=
EXTT9=
EXTT10=
EXTT11=
PLAYORDER=
